<?xml version="1.0" encoding="UTF-8"?><svg xmlns="http://www.w3.org/2000/svg" xmlns:xlink="http://www.w3.org/1999/xlink" width="375pt" zoomAndPan="magnify" viewBox="0 0 375 374.999991" height="374.999991pt" preserveAspectRatio="xMidYMid meet" version="1.2"><defs><g/></defs><g xml:id="surface1" id="surface1"><rect x="0" width="375" y="0" height="374.999991" style="fill:rgb(100%,100%,100%);fill-opacity:1;stroke:none;"/><rect x="0" width="375" y="0" height="374.999991" style="fill:rgb(100%,100%,100%);fill-opacity:1;stroke:none;"/><rect x="0" width="375" y="0" height="374.999991" style="fill:rgb(100%,100%,100%);fill-opacity:1;stroke:none;"/><path style=" stroke:none;fill-rule:evenodd;fill:rgb(0.779724%,46.669006%,74.119568%);fill-opacity:1;" d="M 180.226562 145.957031 C 182.996094 145.96875 205.394531 145.980469 206.457031 145.957031 C 207.523438 145.933594 207.414062 146.175781 207.414062 146.671875 C 207.414062 147.164062 207.402344 153.132812 207.414062 153.816406 C 207.421875 154.503906 207.039062 154.277344 206.457031 154.292969 C 205.878906 154.3125 199.421875 154.292969 198.828125 154.292969 C 198.667969 154.28125 198.507812 154.304688 198.359375 154.363281 C 198.207031 154.417969 198.074219 154.503906 197.960938 154.617188 C 197.84375 154.730469 197.757812 154.863281 197.703125 155.015625 C 197.644531 155.167969 197.625 155.324219 197.636719 155.484375 C 197.636719 156.335938 197.636719 185.058594 197.636719 185.742188 C 197.636719 186.421875 197.261719 186.453125 196.679688 186.457031 C 196.101562 186.460938 190.671875 186.460938 190.003906 186.457031 C 189.335938 186.449219 189.046875 186.578125 189.050781 185.503906 C 189.054688 184.425781 189 155.988281 189.050781 155.484375 C 189.097656 154.984375 188.683594 154.3125 188.097656 154.292969 C 187.511719 154.277344 180.6875 154.285156 180.226562 154.292969 C 179.765625 154.304688 179.539062 154.199219 179.511719 153.578125 C 179.484375 152.960938 179.511719 147.101562 179.511719 146.671875 C 179.5 146.574219 179.511719 146.476562 179.546875 146.386719 C 179.578125 146.292969 179.628906 146.210938 179.699219 146.144531 C 179.769531 146.074219 179.847656 146.023438 179.941406 145.988281 C 180.035156 145.957031 180.128906 145.945312 180.226562 145.957031 Z M 180.226562 145.957031 "/><path style=" stroke:none;fill-rule:evenodd;fill:rgb(16.079712%,71.369934%,96.469116%);fill-opacity:1;" d="M 130.039062 189.191406 C 134.578125 216.785156 215.953125 218.09375 256.925781 216.90625 C 228.496094 221.25 107.675781 236.738281 130.039062 189.191406 Z M 130.039062 189.191406 "/><path style=" stroke:none;fill-rule:evenodd;fill:rgb(0.779724%,46.669006%,74.119568%);fill-opacity:1;" d="M 188.523438 211.199219 C 174.761719 204.960938 132.9375 197.332031 140.613281 162.472656 C 118.59375 195.792969 152.542969 207.191406 188.523438 211.199219 Z M 188.523438 211.199219 "/><path style=" stroke:none;fill-rule:evenodd;fill:rgb(16.079712%,71.369934%,96.469116%);fill-opacity:1;" d="M 145.210938 178.347656 C 143.742188 175.152344 142.464844 172.691406 146.070312 167.804688 C 149.679688 162.917969 152.070312 160.070312 152.175781 159.9375 C 152.285156 159.804688 148.503906 165.894531 146.535156 170.867188 C 145.742188 173.492188 145.09375 177.898438 145.210938 178.347656 Z M 145.210938 178.347656 "/><path style=" stroke:none;fill-rule:evenodd;fill:rgb(83.139038%,88.238525%,34.118652%);fill-opacity:1;" d="M 242.582031 207.476562 C 264.574219 190.183594 226.429688 118.359375 205.605469 83.085938 C 223.140625 105.863281 295.058594 204.078125 242.582031 207.476562 Z M 242.582031 207.476562 "/><path style=" stroke:none;fill-rule:evenodd;fill:rgb(29.798889%,68.629456%,31.369019%);fill-opacity:1;" d="M 233.632812 145.683594 C 234.808594 160.738281 248.3125 201.007812 214.054688 211.125 C 253.894531 214.300781 247.492188 179.09375 233.632812 145.683594 Z M 233.632812 145.683594 "/><path style=" stroke:none;fill-rule:evenodd;fill:rgb(83.139038%,88.238525%,34.118652%);fill-opacity:1;" d="M 225.75 199.4375 C 223.65625 202.265625 222.117188 204.574219 216.089844 203.773438 C 210.066406 202.976562 206.414062 202.261719 206.246094 202.234375 C 206.078125 202.203125 213.242188 202.570312 218.550781 201.894531 C 221.234375 201.320312 225.410156 199.757812 225.75 199.4375 Z M 225.75 199.4375 "/><path style=" stroke:none;fill-rule:evenodd;fill:rgb(92.549133%,25.099182%,47.839355%);fill-opacity:1;" d="M 203.121094 99.976562 C 177.140625 89.570312 133.886719 158.445312 113.691406 194.078125 C 124.691406 167.53125 173.976562 56.246094 203.121094 99.976562 Z M 203.121094 99.976562 "/><path style=" stroke:none;fill-rule:evenodd;fill:rgb(97.24884%,73.329163%,81.568909%);fill-opacity:1;" d="M 153.996094 138.570312 C 166.464844 130.039062 194.648438 98.242188 220.527344 122.847656 C 203.390625 86.773438 176.054688 109.894531 153.996094 138.570312 Z M 153.996094 138.570312 "/><path style=" stroke:none;fill-rule:evenodd;fill:rgb(92.549133%,25.099182%,47.839355%);fill-opacity:1;" d="M 204.550781 118.558594 C 208.050781 118.957031 210.816406 119.136719 213.136719 124.753906 C 215.453125 130.367188 216.65625 133.886719 216.710938 134.042969 C 216.769531 134.203125 213.515625 127.820312 210.273438 123.5625 C 208.4375 121.527344 204.996094 118.691406 204.550781 118.558594 Z M 204.550781 118.558594 "/><g style="fill:rgb(0%,29.019165%,67.83905%);fill-opacity:1;"><g transform="translate(75.045694, 267.454202)"><path style="stroke:none;" d="M 1.289062 -22.398438 C 1.007812 -22.398438 0.839844 -22.230469 0.839844 -21.949219 L 0.839844 -19.148438 C 0.839844 -18.871094 1.007812 -18.703125 1.289062 -18.703125 L 4.535156 -18.703125 L 4.535156 -0.449219 C 4.535156 -0.140625 4.703125 0 4.984375 0 L 7.894531 0 C 8.203125 0 8.34375 -0.140625 8.34375 -0.449219 L 8.34375 -18.703125 L 11.589844 -18.703125 C 11.898438 -18.703125 12.039062 -18.871094 12.039062 -19.148438 L 12.039062 -21.949219 C 12.039062 -22.230469 11.898438 -22.398438 11.589844 -22.398438 Z M 1.289062 -22.398438 "/></g></g><g style="fill:rgb(0%,29.019165%,67.83905%);fill-opacity:1;"><g transform="translate(88.287936, 267.454202)"><path style="stroke:none;" d="M 12.570312 -21.949219 C 12.570312 -22.230469 12.457031 -22.398438 12.121094 -22.398438 L 1.820312 -22.398438 C 1.566406 -22.398438 1.398438 -22.230469 1.398438 -21.949219 L 1.398438 -0.449219 C 1.398438 -0.167969 1.566406 0 1.820312 0 L 12.121094 0 C 12.457031 0 12.570312 -0.167969 12.570312 -0.449219 L 12.570312 -3.246094 C 12.570312 -3.554688 12.457031 -3.695312 12.121094 -3.695312 L 5.125 -3.695312 L 5.125 -9.351562 L 10.472656 -9.351562 C 10.75 -9.351562 10.917969 -9.519531 10.917969 -9.828125 L 10.917969 -12.597656 C 10.917969 -12.90625 10.75 -13.074219 10.472656 -13.074219 L 5.125 -13.074219 L 5.125 -18.675781 L 12.121094 -18.675781 C 12.457031 -18.675781 12.570312 -18.871094 12.570312 -19.148438 Z M 12.570312 -21.949219 "/></g></g><g style="fill:rgb(0%,29.019165%,67.83905%);fill-opacity:1;"><g transform="translate(102.622037, 267.454202)"><path style="stroke:none;" d="M 12.625 -18.367188 C 12.625 -21 11.199219 -22.398438 8.59375 -22.398438 L 5.460938 -22.398438 C 2.828125 -22.398438 1.398438 -21 1.398438 -18.367188 L 1.398438 -4.03125 C 1.398438 -1.398438 2.828125 0 5.460938 0 L 8.59375 0 C 11.199219 0 12.625 -1.398438 12.625 -4.03125 L 12.625 -7.054688 C 12.625 -7.335938 12.457031 -7.503906 12.179688 -7.503906 L 9.378906 -7.503906 C 9.070312 -7.503906 8.929688 -7.335938 8.929688 -7.054688 L 8.929688 -4.816406 C 8.929688 -4.058594 8.539062 -3.695312 7.8125 -3.695312 L 6.355469 -3.695312 C 5.628906 -3.695312 5.234375 -4.058594 5.234375 -4.816406 L 5.234375 -17.582031 C 5.234375 -18.308594 5.597656 -18.703125 6.355469 -18.703125 L 7.8125 -18.703125 C 8.539062 -18.703125 8.929688 -18.308594 8.929688 -17.582031 L 8.929688 -15.34375 C 8.929688 -15.0625 9.070312 -14.894531 9.378906 -14.894531 L 12.179688 -14.894531 C 12.457031 -14.894531 12.625 -15.0625 12.625 -15.34375 Z M 12.625 -18.367188 "/></g></g><g style="fill:rgb(0%,29.019165%,67.83905%);fill-opacity:1;"><g transform="translate(117.01212, 267.454202)"><path style="stroke:none;" d="M 9.433594 -11.421875 L 13.71875 -21.726562 C 13.886719 -22.117188 13.746094 -22.398438 13.296875 -22.398438 L 10.5 -22.398438 C 10.191406 -22.398438 9.96875 -22.285156 9.855469 -22.007812 L 7.25 -15.371094 L 4.648438 -22.007812 C 4.535156 -22.285156 4.3125 -22.398438 4.003906 -22.398438 L 1.203125 -22.398438 C 0.757812 -22.398438 0.617188 -22.117188 0.785156 -21.726562 L 5.039062 -11.421875 L 0.617188 -0.671875 C 0.449219 -0.28125 0.589844 0 1.035156 0 L 3.917969 0 C 4.226562 0 4.453125 -0.113281 4.5625 -0.390625 L 7.25 -7.167969 L 9.9375 -0.390625 C 10.050781 -0.113281 10.273438 0 10.582031 0 L 13.46875 0 C 13.914062 0 14.054688 -0.28125 13.886719 -0.671875 Z M 9.433594 -11.421875 "/></g></g><g style="fill:rgb(0%,29.019165%,67.83905%);fill-opacity:1;"><g transform="translate(132.438068, 267.454202)"><path style="stroke:none;" d="M 1.847656 -22.398438 C 1.539062 -22.398438 1.398438 -22.230469 1.398438 -21.949219 L 1.398438 -0.449219 C 1.398438 -0.167969 1.539062 0 1.847656 0 L 4.757812 0 C 5.039062 0 5.207031 -0.167969 5.207031 -0.449219 L 5.207031 -21.949219 C 5.207031 -22.230469 5.039062 -22.398438 4.757812 -22.398438 Z M 1.847656 -22.398438 "/></g></g><g style="fill:rgb(0%,29.019165%,67.83905%);fill-opacity:1;"><g transform="translate(139.409167, 267.454202)"><path style="stroke:none;" d="M 12.625 -18.367188 C 12.625 -21 11.199219 -22.398438 8.59375 -22.398438 L 5.460938 -22.398438 C 2.828125 -22.398438 1.398438 -21 1.398438 -18.367188 L 1.398438 -4.03125 C 1.398438 -1.398438 2.828125 0 5.460938 0 L 8.59375 0 C 11.199219 0 12.625 -1.398438 12.625 -4.03125 L 12.625 -7.054688 C 12.625 -7.335938 12.457031 -7.503906 12.179688 -7.503906 L 9.378906 -7.503906 C 9.070312 -7.503906 8.929688 -7.335938 8.929688 -7.054688 L 8.929688 -4.816406 C 8.929688 -4.058594 8.539062 -3.695312 7.8125 -3.695312 L 6.355469 -3.695312 C 5.628906 -3.695312 5.234375 -4.058594 5.234375 -4.816406 L 5.234375 -17.582031 C 5.234375 -18.308594 5.597656 -18.703125 6.355469 -18.703125 L 7.8125 -18.703125 C 8.539062 -18.703125 8.929688 -18.308594 8.929688 -17.582031 L 8.929688 -15.34375 C 8.929688 -15.0625 9.070312 -14.894531 9.378906 -14.894531 L 12.179688 -14.894531 C 12.457031 -14.894531 12.625 -15.0625 12.625 -15.34375 Z M 12.625 -18.367188 "/></g></g><g style="fill:rgb(0%,29.019165%,67.83905%);fill-opacity:1;"><g transform="translate(153.799254, 267.454202)"><path style="stroke:none;" d="M 13.382812 0 C 13.832031 0 14 -0.28125 13.804688 -0.644531 L 8.734375 -11.953125 L 13.496094 -21.726562 C 13.691406 -22.117188 13.523438 -22.398438 13.101562 -22.398438 L 10.164062 -22.398438 C 9.855469 -22.398438 9.660156 -22.257812 9.519531 -21.976562 L 5.207031 -13.160156 L 5.207031 -21.839844 C 5.207031 -22.203125 5.011719 -22.398438 4.648438 -22.398438 L 1.960938 -22.398438 C 1.597656 -22.398438 1.398438 -22.203125 1.398438 -21.839844 L 1.398438 -0.558594 C 1.398438 -0.195312 1.597656 0 1.960938 0 L 4.648438 0 C 5.011719 0 5.207031 -0.195312 5.207031 -0.558594 L 5.207031 -6.746094 L 6.242188 -8.734375 L 9.769531 -0.421875 C 9.882812 -0.140625 10.078125 0 10.414062 0 Z M 13.382812 0 "/></g></g><g style="fill:rgb(0%,29.019165%,67.83905%);fill-opacity:1;"><g transform="translate(169.169206, 267.454202)"><path style="stroke:none;" d=""/></g></g><g style="fill:rgb(0%,29.019165%,67.83905%);fill-opacity:1;"><g transform="translate(176.532248, 267.454202)"><path style="stroke:none;" d="M 5.429688 -22.398438 C 2.828125 -22.398438 1.398438 -21 1.398438 -18.367188 L 1.398438 -11.757812 C 1.398438 -11.226562 1.652344 -10.890625 2.15625 -10.722656 L 8.792969 -8.539062 L 8.792969 -4.816406 C 8.792969 -4.058594 8.398438 -3.695312 7.671875 -3.695312 L 6.328125 -3.695312 C 5.628906 -3.695312 5.207031 -4.058594 5.207031 -4.816406 L 5.207031 -6.972656 C 5.207031 -7.28125 5.066406 -7.417969 4.757812 -7.417969 L 1.847656 -7.417969 C 1.566406 -7.417969 1.398438 -7.28125 1.398438 -6.972656 L 1.398438 -4.03125 C 1.398438 -1.398438 2.828125 0 5.429688 0 L 8.566406 0 C 11.199219 0 12.597656 -1.398438 12.597656 -4.03125 L 12.597656 -10.5 C 12.597656 -11.03125 12.347656 -11.339844 11.871094 -11.535156 L 5.207031 -13.71875 L 5.207031 -17.582031 C 5.207031 -18.308594 5.628906 -18.703125 6.328125 -18.703125 L 7.671875 -18.703125 C 8.425781 -18.703125 8.792969 -18.308594 8.792969 -17.582031 L 8.792969 -15.398438 C 8.792969 -15.117188 8.960938 -14.949219 9.238281 -14.949219 L 12.152344 -14.949219 C 12.457031 -14.949219 12.597656 -15.117188 12.597656 -15.398438 L 12.597656 -18.367188 C 12.597656 -21 11.199219 -22.398438 8.566406 -22.398438 Z M 5.429688 -22.398438 "/></g></g><g style="fill:rgb(0%,29.019165%,67.83905%);fill-opacity:1;"><g transform="translate(190.894342, 267.454202)"><path style="stroke:none;" d="M 1.398438 -4.03125 C 1.398438 -1.398438 2.800781 0 5.429688 0 L 8.566406 0 C 11.199219 0 12.597656 -1.398438 12.597656 -4.03125 L 12.597656 -18.367188 C 12.597656 -21 11.199219 -22.398438 8.566406 -22.398438 L 5.429688 -22.398438 C 2.800781 -22.398438 1.398438 -21 1.398438 -18.367188 Z M 6.242188 -3.613281 C 5.515625 -3.613281 5.125 -3.976562 5.125 -4.730469 L 5.125 -17.667969 C 5.125 -18.394531 5.515625 -18.785156 6.242188 -18.785156 L 7.867188 -18.785156 C 8.59375 -18.785156 8.988281 -18.394531 8.988281 -17.667969 L 8.988281 -4.730469 C 8.988281 -3.976562 8.59375 -3.613281 7.867188 -3.613281 Z M 6.242188 -3.613281 "/></g></g><g style="fill:rgb(0%,29.019165%,67.83905%);fill-opacity:1;"><g transform="translate(205.256436, 267.454202)"><path style="stroke:none;" d="M 12.597656 -21.949219 C 12.597656 -22.230469 12.429688 -22.398438 12.152344 -22.398438 L 1.847656 -22.398438 C 1.539062 -22.398438 1.398438 -22.230469 1.398438 -21.949219 L 1.398438 -0.449219 C 1.398438 -0.167969 1.539062 0 1.847656 0 L 4.757812 0 C 5.039062 0 5.207031 -0.167969 5.207031 -0.449219 L 5.207031 -9.378906 L 10.472656 -9.378906 C 10.75 -9.378906 10.917969 -9.519531 10.917969 -9.828125 L 10.917969 -12.625 C 10.917969 -12.90625 10.75 -13.074219 10.472656 -13.074219 L 5.207031 -13.074219 L 5.207031 -18.703125 L 12.152344 -18.703125 C 12.429688 -18.703125 12.597656 -18.871094 12.597656 -19.148438 Z M 12.597656 -21.949219 "/></g></g><g style="fill:rgb(0%,29.019165%,67.83905%);fill-opacity:1;"><g transform="translate(219.61853, 267.454202)"><path style="stroke:none;" d="M 1.289062 -22.398438 C 1.007812 -22.398438 0.839844 -22.230469 0.839844 -21.949219 L 0.839844 -19.148438 C 0.839844 -18.871094 1.007812 -18.703125 1.289062 -18.703125 L 4.535156 -18.703125 L 4.535156 -0.449219 C 4.535156 -0.140625 4.703125 0 4.984375 0 L 7.894531 0 C 8.203125 0 8.34375 -0.140625 8.34375 -0.449219 L 8.34375 -18.703125 L 11.589844 -18.703125 C 11.898438 -18.703125 12.039062 -18.871094 12.039062 -19.148438 L 12.039062 -21.949219 C 12.039062 -22.230469 11.898438 -22.398438 11.589844 -22.398438 Z M 1.289062 -22.398438 "/></g></g><g style="fill:rgb(0%,29.019165%,67.83905%);fill-opacity:1;"><g transform="translate(232.860774, 267.454202)"><path style="stroke:none;" d="M 16.714844 -22.398438 C 16.378906 -22.398438 16.15625 -22.203125 16.125 -21.867188 L 14.980469 -8.761719 L 14.839844 -8.761719 L 12.09375 -21.894531 C 12.011719 -22.230469 11.816406 -22.398438 11.480469 -22.398438 L 9.800781 -22.398438 C 9.464844 -22.398438 9.265625 -22.230469 9.183594 -21.894531 L 6.410156 -8.761719 L 6.269531 -8.761719 L 5.179688 -21.867188 C 5.152344 -22.203125 4.925781 -22.398438 4.589844 -22.398438 L 1.933594 -22.398438 C 1.566406 -22.398438 1.371094 -22.175781 1.398438 -21.808594 L 3.695312 -0.53125 C 3.722656 -0.167969 3.917969 0 4.285156 0 L 7.082031 0 C 7.417969 0 7.617188 -0.167969 7.699219 -0.476562 L 10.640625 -13.160156 L 13.550781 -0.503906 C 13.636719 -0.167969 13.832031 0 14.167969 0 L 16.910156 0 C 17.273438 0 17.46875 -0.167969 17.5 -0.53125 L 19.90625 -21.808594 C 19.933594 -22.175781 19.738281 -22.398438 19.375 -22.398438 Z M 16.714844 -22.398438 "/></g></g><g style="fill:rgb(0%,29.019165%,67.83905%);fill-opacity:1;"><g transform="translate(254.529875, 267.454202)"><path style="stroke:none;" d="M 14.894531 0 C 15.230469 0 15.34375 -0.167969 15.285156 -0.476562 L 10.640625 -22.007812 C 10.582031 -22.285156 10.414062 -22.398438 10.164062 -22.398438 L 6.269531 -22.398438 C 6.019531 -22.398438 5.851562 -22.285156 5.796875 -22.007812 L 1.148438 -0.476562 C 1.0625 -0.167969 1.203125 0 1.511719 0 L 4.507812 0 C 4.757812 0 4.898438 -0.140625 4.957031 -0.390625 L 5.710938 -4.480469 L 10.695312 -4.480469 L 11.480469 -0.390625 C 11.535156 -0.140625 11.675781 0 11.925781 0 Z M 9.996094 -7.726562 L 6.410156 -7.726562 L 8.203125 -17.5 Z M 9.996094 -7.726562 "/></g></g><g style="fill:rgb(0%,29.019165%,67.83905%);fill-opacity:1;"><g transform="translate(271.299633, 267.454202)"><path style="stroke:none;" d="M 12.90625 -18.367188 C 12.90625 -21 11.507812 -22.398438 8.875 -22.398438 L 1.847656 -22.398438 C 1.566406 -22.398438 1.398438 -22.230469 1.398438 -21.949219 L 1.398438 -0.449219 C 1.398438 -0.167969 1.566406 0 1.847656 0 L 4.757812 0 C 5.039062 0 5.207031 -0.167969 5.207031 -0.449219 L 5.207031 -7.503906 L 7.140625 -7.503906 L 9.015625 -0.390625 C 9.070312 -0.140625 9.210938 0 9.492188 0 L 12.402344 0 C 12.710938 0 12.878906 -0.167969 12.792969 -0.503906 L 10.863281 -7.839844 C 12.207031 -8.425781 12.90625 -9.660156 12.90625 -11.535156 Z M 5.207031 -11.199219 L 5.207031 -18.703125 L 7.980469 -18.703125 C 8.707031 -18.703125 9.097656 -18.308594 9.097656 -17.582031 L 9.097656 -12.320312 C 9.097656 -11.589844 8.707031 -11.199219 7.980469 -11.199219 Z M 5.207031 -11.199219 "/></g></g><g style="fill:rgb(0%,29.019165%,67.83905%);fill-opacity:1;"><g transform="translate(285.969677, 267.454202)"><path style="stroke:none;" d="M 12.570312 -21.949219 C 12.570312 -22.230469 12.457031 -22.398438 12.121094 -22.398438 L 1.820312 -22.398438 C 1.566406 -22.398438 1.398438 -22.230469 1.398438 -21.949219 L 1.398438 -0.449219 C 1.398438 -0.167969 1.566406 0 1.820312 0 L 12.121094 0 C 12.457031 0 12.570312 -0.167969 12.570312 -0.449219 L 12.570312 -3.246094 C 12.570312 -3.554688 12.457031 -3.695312 12.121094 -3.695312 L 5.125 -3.695312 L 5.125 -9.351562 L 10.472656 -9.351562 C 10.75 -9.351562 10.917969 -9.519531 10.917969 -9.828125 L 10.917969 -12.597656 C 10.917969 -12.90625 10.75 -13.074219 10.472656 -13.074219 L 5.125 -13.074219 L 5.125 -18.675781 L 12.121094 -18.675781 C 12.457031 -18.675781 12.570312 -18.871094 12.570312 -19.148438 Z M 12.570312 -21.949219 "/></g></g><g style="fill:rgb(32.939148%,32.939148%,32.939148%);fill-opacity:1;"><g transform="translate(139.737283, 289.127851)"><path style="stroke:none;" d="M 5.484375 -6.515625 C 5.265625 -6.753906 5.007812 -6.941406 4.71875 -7.078125 C 4.4375 -7.222656 4.09375 -7.296875 3.6875 -7.296875 C 3.164062 -7.296875 2.757812 -7.1875 2.46875 -6.96875 C 2.175781 -6.75 2.03125 -6.453125 2.03125 -6.078125 C 2.03125 -5.566406 2.390625 -5.191406 3.109375 -4.953125 L 4.765625 -4.4375 C 6.015625 -4.039062 6.640625 -3.304688 6.640625 -2.234375 C 6.640625 -1.503906 6.367188 -0.929688 5.828125 -0.515625 C 5.285156 -0.0976562 4.546875 0.109375 3.609375 0.109375 C 2.910156 0.109375 2.289062 -0.0078125 1.75 -0.25 C 1.21875 -0.488281 0.804688 -0.832031 0.515625 -1.28125 C 0.484375 -1.34375 0.46875 -1.378906 0.46875 -1.390625 C 0.46875 -1.453125 0.503906 -1.507812 0.578125 -1.5625 L 1.125 -1.9375 C 1.1875 -1.976562 1.242188 -2 1.296875 -2 C 1.347656 -2 1.394531 -1.972656 1.4375 -1.921875 C 1.726562 -1.535156 2.019531 -1.257812 2.3125 -1.09375 C 2.613281 -0.9375 3.019531 -0.859375 3.53125 -0.859375 C 4.101562 -0.859375 4.550781 -0.957031 4.875 -1.15625 C 5.195312 -1.351562 5.359375 -1.660156 5.359375 -2.078125 C 5.359375 -2.335938 5.273438 -2.554688 5.109375 -2.734375 C 4.941406 -2.921875 4.644531 -3.09375 4.21875 -3.25 L 2.546875 -3.78125 C 1.953125 -3.976562 1.503906 -4.265625 1.203125 -4.640625 C 0.910156 -5.023438 0.765625 -5.453125 0.765625 -5.921875 C 0.765625 -6.390625 0.882812 -6.800781 1.125 -7.15625 C 1.375 -7.507812 1.71875 -7.78125 2.15625 -7.96875 C 2.59375 -8.164062 3.09375 -8.265625 3.65625 -8.265625 C 4.226562 -8.265625 4.742188 -8.164062 5.203125 -7.96875 C 5.660156 -7.769531 6.035156 -7.5 6.328125 -7.15625 C 6.359375 -7.125 6.375 -7.085938 6.375 -7.046875 C 6.375 -6.992188 6.359375 -6.957031 6.328125 -6.9375 L 5.703125 -6.453125 C 5.671875 -6.421875 5.640625 -6.40625 5.609375 -6.40625 C 5.585938 -6.40625 5.546875 -6.441406 5.484375 -6.515625 Z M 5.484375 -6.515625 "/></g></g><g style="fill:rgb(32.939148%,32.939148%,32.939148%);fill-opacity:1;"><g transform="translate(152.690463, 289.127851)"><path style="stroke:none;" d="M 0.96875 -8 C 0.96875 -8.050781 0.976562 -8.085938 1 -8.109375 C 1.019531 -8.140625 1.0625 -8.15625 1.125 -8.15625 L 6.25 -8.15625 C 6.332031 -8.15625 6.375 -8.109375 6.375 -8.015625 L 6.375 -7.328125 C 6.375 -7.210938 6.316406 -7.15625 6.203125 -7.15625 L 2.46875 -7.15625 C 2.351562 -7.15625 2.296875 -7.109375 2.296875 -7.015625 L 2.296875 -4.75 C 2.296875 -4.65625 2.34375 -4.609375 2.4375 -4.609375 L 5.125 -4.609375 C 5.21875 -4.609375 5.265625 -4.566406 5.265625 -4.484375 L 5.265625 -3.734375 C 5.265625 -3.660156 5.21875 -3.625 5.125 -3.625 L 2.4375 -3.625 C 2.34375 -3.625 2.296875 -3.582031 2.296875 -3.5 L 2.296875 -1.125 C 2.296875 -1.082031 2.304688 -1.050781 2.328125 -1.03125 C 2.347656 -1.007812 2.375 -1 2.40625 -1 L 6.359375 -1 C 6.421875 -1 6.460938 -0.988281 6.484375 -0.96875 C 6.503906 -0.957031 6.515625 -0.925781 6.515625 -0.875 L 6.515625 -0.140625 C 6.515625 -0.046875 6.460938 0 6.359375 0 L 1.15625 0 C 1.082031 0 1.03125 -0.0078125 1 -0.03125 C 0.976562 -0.0625 0.96875 -0.109375 0.96875 -0.171875 Z M 0.96875 -8 "/></g></g><g style="fill:rgb(32.939148%,32.939148%,32.939148%);fill-opacity:1;"><g transform="translate(165.46777, 289.127851)"><path style="stroke:none;" d="M 7.046875 -0.234375 C 7.066406 -0.191406 7.078125 -0.160156 7.078125 -0.140625 C 7.078125 -0.109375 7.0625 -0.078125 7.03125 -0.046875 C 7 -0.015625 6.960938 0 6.921875 0 L 5.859375 0 C 5.765625 0 5.695312 -0.0507812 5.65625 -0.15625 L 4.3125 -3.5 C 4.28125 -3.582031 4.1875 -3.625 4.03125 -3.625 L 2.4375 -3.625 C 2.34375 -3.625 2.296875 -3.585938 2.296875 -3.515625 L 2.296875 -0.203125 C 2.296875 -0.128906 2.28125 -0.078125 2.25 -0.046875 C 2.21875 -0.015625 2.164062 0 2.09375 0 L 1.15625 0 C 1.09375 0 1.046875 -0.015625 1.015625 -0.046875 C 0.984375 -0.078125 0.96875 -0.117188 0.96875 -0.171875 L 0.96875 -8 C 0.96875 -8.050781 0.976562 -8.085938 1 -8.109375 C 1.019531 -8.140625 1.0625 -8.15625 1.125 -8.15625 L 4.296875 -8.15625 C 5.210938 -8.15625 5.914062 -7.96875 6.40625 -7.59375 C 6.90625 -7.226562 7.15625 -6.695312 7.15625 -6 C 7.15625 -5.4375 7.003906 -4.972656 6.703125 -4.609375 C 6.398438 -4.253906 6.023438 -4.007812 5.578125 -3.875 C 5.535156 -3.851562 5.519531 -3.804688 5.53125 -3.734375 Z M 4.03125 -4.5625 C 4.625 -4.5625 5.0625 -4.671875 5.34375 -4.890625 C 5.632812 -5.109375 5.78125 -5.445312 5.78125 -5.90625 C 5.78125 -6.34375 5.644531 -6.671875 5.375 -6.890625 C 5.113281 -7.117188 4.726562 -7.234375 4.21875 -7.234375 L 2.46875 -7.234375 C 2.40625 -7.234375 2.359375 -7.222656 2.328125 -7.203125 C 2.304688 -7.179688 2.296875 -7.144531 2.296875 -7.09375 L 2.296875 -4.71875 C 2.296875 -4.613281 2.335938 -4.5625 2.421875 -4.5625 Z M 4.03125 -4.5625 "/></g></g><g style="fill:rgb(32.939148%,32.939148%,32.939148%);fill-opacity:1;"><g transform="translate(178.992549, 289.127851)"><path style="stroke:none;" d="M 7.28125 -8.15625 C 7.332031 -8.15625 7.367188 -8.132812 7.390625 -8.09375 C 7.421875 -8.0625 7.425781 -8.019531 7.40625 -7.96875 L 4.65625 -0.1875 C 4.632812 -0.125 4.601562 -0.078125 4.5625 -0.046875 C 4.519531 -0.015625 4.460938 0 4.390625 0 L 3.453125 0 C 3.296875 0 3.195312 -0.0546875 3.15625 -0.171875 L 0.46875 -7.96875 C 0.457031 -7.976562 0.453125 -8 0.453125 -8.03125 C 0.453125 -8.0625 0.460938 -8.085938 0.484375 -8.109375 C 0.515625 -8.140625 0.550781 -8.15625 0.59375 -8.15625 L 1.625 -8.15625 C 1.726562 -8.15625 1.789062 -8.109375 1.8125 -8.015625 L 3.953125 -1.6875 C 3.984375 -1.632812 4.007812 -1.609375 4.03125 -1.609375 C 4.050781 -1.609375 4.078125 -1.640625 4.109375 -1.703125 L 6.25 -8.015625 C 6.28125 -8.109375 6.347656 -8.15625 6.453125 -8.15625 Z M 7.28125 -8.15625 "/></g></g><g style="fill:rgb(32.939148%,32.939148%,32.939148%);fill-opacity:1;"><g transform="translate(192.638245, 289.127851)"><path style="stroke:none;" d="M 2.15625 -8.15625 C 2.25 -8.15625 2.296875 -8.101562 2.296875 -8 L 2.296875 -0.203125 C 2.296875 -0.128906 2.28125 -0.078125 2.25 -0.046875 C 2.21875 -0.015625 2.15625 0 2.0625 0 L 1.171875 0 C 1.097656 0 1.046875 -0.0078125 1.015625 -0.03125 C 0.984375 -0.0625 0.96875 -0.109375 0.96875 -0.171875 L 0.96875 -8 C 0.96875 -8.101562 1.019531 -8.15625 1.125 -8.15625 Z M 2.15625 -8.15625 "/></g></g><g style="fill:rgb(32.939148%,32.939148%,32.939148%);fill-opacity:1;"><g transform="translate(201.70018, 289.127851)"><path style="stroke:none;" d="M 4.171875 -8.265625 C 4.671875 -8.265625 5.144531 -8.160156 5.59375 -7.953125 C 6.039062 -7.742188 6.410156 -7.460938 6.703125 -7.109375 C 7.003906 -6.765625 7.1875 -6.382812 7.25 -5.96875 C 7.257812 -5.9375 7.265625 -5.898438 7.265625 -5.859375 C 7.265625 -5.816406 7.253906 -5.789062 7.234375 -5.78125 C 7.222656 -5.769531 7.195312 -5.757812 7.15625 -5.75 L 6.125 -5.6875 L 6.09375 -5.6875 C 6.050781 -5.6875 6.019531 -5.726562 6 -5.8125 C 5.894531 -6.257812 5.6875 -6.617188 5.375 -6.890625 C 5.0625 -7.160156 4.675781 -7.296875 4.21875 -7.296875 C 3.5 -7.296875 2.953125 -7.03125 2.578125 -6.5 C 2.210938 -5.96875 2.03125 -5.164062 2.03125 -4.09375 C 2.03125 -3.019531 2.210938 -2.21875 2.578125 -1.6875 C 2.953125 -1.164062 3.507812 -0.90625 4.25 -0.90625 C 4.75 -0.90625 5.164062 -1.023438 5.5 -1.265625 C 5.832031 -1.503906 6.101562 -1.894531 6.3125 -2.4375 C 6.320312 -2.488281 6.378906 -2.503906 6.484375 -2.484375 L 7.265625 -2.296875 C 7.328125 -2.285156 7.351562 -2.222656 7.34375 -2.109375 C 7.238281 -1.753906 7.050781 -1.410156 6.78125 -1.078125 C 6.507812 -0.742188 6.15625 -0.460938 5.71875 -0.234375 C 5.28125 -0.00390625 4.773438 0.109375 4.203125 0.109375 C 3.472656 0.109375 2.835938 -0.0625 2.296875 -0.40625 C 1.765625 -0.75 1.351562 -1.238281 1.0625 -1.875 C 0.78125 -2.507812 0.640625 -3.253906 0.640625 -4.109375 C 0.640625 -4.960938 0.78125 -5.703125 1.0625 -6.328125 C 1.34375 -6.953125 1.75 -7.429688 2.28125 -7.765625 C 2.8125 -8.097656 3.441406 -8.265625 4.171875 -8.265625 Z M 4.171875 -8.265625 "/></g></g><g style="fill:rgb(32.939148%,32.939148%,32.939148%);fill-opacity:1;"><g transform="translate(215.312892, 289.127851)"><path style="stroke:none;" d="M 0.96875 -8 C 0.96875 -8.050781 0.976562 -8.085938 1 -8.109375 C 1.019531 -8.140625 1.0625 -8.15625 1.125 -8.15625 L 6.25 -8.15625 C 6.332031 -8.15625 6.375 -8.109375 6.375 -8.015625 L 6.375 -7.328125 C 6.375 -7.210938 6.316406 -7.15625 6.203125 -7.15625 L 2.46875 -7.15625 C 2.351562 -7.15625 2.296875 -7.109375 2.296875 -7.015625 L 2.296875 -4.75 C 2.296875 -4.65625 2.34375 -4.609375 2.4375 -4.609375 L 5.125 -4.609375 C 5.21875 -4.609375 5.265625 -4.566406 5.265625 -4.484375 L 5.265625 -3.734375 C 5.265625 -3.660156 5.21875 -3.625 5.125 -3.625 L 2.4375 -3.625 C 2.34375 -3.625 2.296875 -3.582031 2.296875 -3.5 L 2.296875 -1.125 C 2.296875 -1.082031 2.304688 -1.050781 2.328125 -1.03125 C 2.347656 -1.007812 2.375 -1 2.40625 -1 L 6.359375 -1 C 6.421875 -1 6.460938 -0.988281 6.484375 -0.96875 C 6.503906 -0.957031 6.515625 -0.925781 6.515625 -0.875 L 6.515625 -0.140625 C 6.515625 -0.046875 6.460938 0 6.359375 0 L 1.15625 0 C 1.082031 0 1.03125 -0.0078125 1 -0.03125 C 0.976562 -0.0625 0.96875 -0.109375 0.96875 -0.171875 Z M 0.96875 -8 "/></g></g><g style="fill:rgb(32.939148%,32.939148%,32.939148%);fill-opacity:1;"><g transform="translate(228.090196, 289.127851)"><path style="stroke:none;" d="M 5.484375 -6.515625 C 5.265625 -6.753906 5.007812 -6.941406 4.71875 -7.078125 C 4.4375 -7.222656 4.09375 -7.296875 3.6875 -7.296875 C 3.164062 -7.296875 2.757812 -7.1875 2.46875 -6.96875 C 2.175781 -6.75 2.03125 -6.453125 2.03125 -6.078125 C 2.03125 -5.566406 2.390625 -5.191406 3.109375 -4.953125 L 4.765625 -4.4375 C 6.015625 -4.039062 6.640625 -3.304688 6.640625 -2.234375 C 6.640625 -1.503906 6.367188 -0.929688 5.828125 -0.515625 C 5.285156 -0.0976562 4.546875 0.109375 3.609375 0.109375 C 2.910156 0.109375 2.289062 -0.0078125 1.75 -0.25 C 1.21875 -0.488281 0.804688 -0.832031 0.515625 -1.28125 C 0.484375 -1.34375 0.46875 -1.378906 0.46875 -1.390625 C 0.46875 -1.453125 0.503906 -1.507812 0.578125 -1.5625 L 1.125 -1.9375 C 1.1875 -1.976562 1.242188 -2 1.296875 -2 C 1.347656 -2 1.394531 -1.972656 1.4375 -1.921875 C 1.726562 -1.535156 2.019531 -1.257812 2.3125 -1.09375 C 2.613281 -0.9375 3.019531 -0.859375 3.53125 -0.859375 C 4.101562 -0.859375 4.550781 -0.957031 4.875 -1.15625 C 5.195312 -1.351562 5.359375 -1.660156 5.359375 -2.078125 C 5.359375 -2.335938 5.273438 -2.554688 5.109375 -2.734375 C 4.941406 -2.921875 4.644531 -3.09375 4.21875 -3.25 L 2.546875 -3.78125 C 1.953125 -3.976562 1.503906 -4.265625 1.203125 -4.640625 C 0.910156 -5.023438 0.765625 -5.453125 0.765625 -5.921875 C 0.765625 -6.390625 0.882812 -6.800781 1.125 -7.15625 C 1.375 -7.507812 1.71875 -7.78125 2.15625 -7.96875 C 2.59375 -8.164062 3.09375 -8.265625 3.65625 -8.265625 C 4.226562 -8.265625 4.742188 -8.164062 5.203125 -7.96875 C 5.660156 -7.769531 6.035156 -7.5 6.328125 -7.15625 C 6.359375 -7.125 6.375 -7.085938 6.375 -7.046875 C 6.375 -6.992188 6.359375 -6.957031 6.328125 -6.9375 L 5.703125 -6.453125 C 5.671875 -6.421875 5.640625 -6.40625 5.609375 -6.40625 C 5.585938 -6.40625 5.546875 -6.441406 5.484375 -6.515625 Z M 5.484375 -6.515625 "/></g></g></g></svg>